<svg width="72" height="72" viewBox="0 0 72 72" fill="none" xmlns="http://www.w3.org/2000/svg">
<circle cx="36" cy="36" r="35.5" fill="white" stroke="#D1D5DB"/>
<path d="M44 21.75H29C27.9453 21.7891 27.0664 22.1602 26.3633 22.8633C25.6602 23.5664 25.2891 24.4453 25.25 25.5V48C25.2891 49.0547 25.6602 49.9336 26.3633 50.6367C27.0664 51.3398 27.9453 51.7109 29 51.75H44C45.0547 51.7109 45.9336 51.3398 46.6367 50.6367C47.3398 49.9336 47.7109 49.0547 47.75 48V25.5C47.7109 24.4453 47.3398 23.5664 46.6367 22.8633C45.9336 22.1602 45.0547 21.7891 44 21.75ZM45.875 48C45.875 48.5469 45.6992 48.9961 45.3477 49.3477C44.9961 49.6992 44.5469 49.875 44 49.875H29C28.4531 49.875 28.0039 49.6992 27.6523 49.3477C27.3008 48.9961 27.125 48.5469 27.125 48V31.125H45.875V48ZM45.875 29.25H27.125V25.5C27.125 24.9531 27.3008 24.5039 27.6523 24.1523C28.0039 23.8008 28.4531 23.625 29 23.625H44C44.5469 23.625 44.9961 23.8008 45.3477 24.1523C45.6992 24.5039 45.875 24.9531 45.875 25.5V29.25ZM29.9375 47.0625H37.4375C38.0234 47.0234 38.3359 46.7109 38.375 46.125C38.3359 45.5391 38.0234 45.2266 37.4375 45.1875H29.9375C29.3516 45.2266 29.0391 45.5391 29 46.125C29.0391 46.7109 29.3516 47.0234 29.9375 47.0625ZM42.125 47.5312C42.9844 47.4531 43.4531 46.9844 43.5312 46.125C43.4531 45.2656 42.9844 44.7969 42.125 44.7188C41.2656 44.7969 40.7969 45.2656 40.7188 46.125C40.7969 46.9844 41.2656 47.4531 42.125 47.5312ZM42.125 41.9062C42.9844 41.8281 43.4531 41.3594 43.5312 40.5C43.4531 39.6406 42.9844 39.1719 42.125 39.0938C41.2656 39.1719 40.7969 39.6406 40.7188 40.5C40.7969 41.3594 41.2656 41.8281 42.125 41.9062ZM42.125 36.2812C42.9844 36.2031 43.4531 35.7344 43.5312 34.875C43.4531 34.0156 42.9844 33.5469 42.125 33.4688C41.2656 33.5469 40.7969 34.0156 40.7188 34.875C40.7969 35.7344 41.2656 36.2031 42.125 36.2812ZM36.5 41.9062C37.3594 41.8281 37.8281 41.3594 37.9062 40.5C37.8281 39.6406 37.3594 39.1719 36.5 39.0938C35.6406 39.1719 35.1719 39.6406 35.0938 40.5C35.1719 41.3594 35.6406 41.8281 36.5 41.9062ZM36.5 36.2812C37.3594 36.2031 37.8281 35.7344 37.9062 34.875C37.8281 34.0156 37.3594 33.5469 36.5 33.4688C35.6406 33.5469 35.1719 34.0156 35.0938 34.875C35.1719 35.7344 35.6406 36.2031 36.5 36.2812ZM30.875 41.9062C31.7344 41.8281 32.2031 41.3594 32.2812 40.5C32.2031 39.6406 31.7344 39.1719 30.875 39.0938C30.0156 39.1719 29.5469 39.6406 29.4688 40.5C29.5469 41.3594 30.0156 41.8281 30.875 41.9062ZM30.875 36.2812C31.7344 36.2031 32.2031 35.7344 32.2812 34.875C32.2031 34.0156 31.7344 33.5469 30.875 33.4688C30.0156 33.5469 29.5469 34.0156 29.4688 34.875C29.5469 35.7344 30.0156 36.2031 30.875 36.2812Z" fill="#9FA6B2"/>
</svg>
