<svg width="23" height="23" viewBox="0 0 23 23" fill="none" xmlns="http://www.w3.org/2000/svg">
<path d="M13.75 22.75C14.5234 22.7214 15.168 22.4492 15.6836 21.9336C16.1992 21.418 16.4714 20.7734 16.5 20H11C11.0286 20.7734 11.3008 21.418 11.8164 21.9336C12.332 22.4492 12.9766 22.7214 13.75 22.75ZM14.7812 10.4609V5.90625C14.7526 4.44531 14.2513 3.22786 13.2773 2.25391C12.3034 1.27995 11.0859 0.778646 9.625 0.75H5.15625C3.69531 0.778646 2.47786 1.27995 1.50391 2.25391C0.529948 3.22786 0.0286458 4.44531 0 5.90625V22.75H2.0625V5.90625C2.09115 5.01823 2.39193 4.28776 2.96484 3.71484C3.53776 3.14193 4.26823 2.84115 5.15625 2.8125H9.625C10.513 2.84115 11.2435 3.14193 11.8164 3.71484C12.3893 4.28776 12.6901 5.01823 12.7188 5.90625V10.4609C10.8281 10.7188 9.22396 11.4779 7.90625 12.7383C6.61719 14.0273 5.8151 15.6029 5.5 17.4648C5.47135 17.7799 5.55729 18.0521 5.75781 18.2812C5.95833 18.5104 6.21615 18.625 6.53125 18.625H20.9688C21.2839 18.625 21.5417 18.5104 21.7422 18.2812C21.9427 18.0521 22.0286 17.7799 22 17.4648C21.6849 15.6029 20.8828 14.0273 19.5938 12.7383C18.276 11.4779 16.6719 10.7188 14.7812 10.4609ZM7.86328 16.5625C8.29297 15.3594 9.02344 14.3854 10.0547 13.6406C11.1719 12.8958 12.4036 12.5234 13.75 12.5234C15.125 12.5234 16.3568 12.8958 17.4453 13.6406C18.4766 14.3854 19.207 15.3594 19.6367 16.5625H7.86328Z" fill="#00B712"/>
</svg>
