<svg width="65" height="46" viewBox="0 0 65 46" fill="none" xmlns="http://www.w3.org/2000/svg">
<path d="M7 27.6426H58L56 39.6426H9L7 27.6426Z" fill="#00B712"/>
<path d="M63.1884 17.1429H60.1418L60.7103 1.89915C60.749 0.861931 59.9186 0 58.8807 0V0C57.9179 0 57.1196 0.745728 57.054 1.70633L54.6128 37.5H10.3809L7.68682 1.68542C7.61531 0.73481 6.82315 0 5.86985 0V0C4.82588 0 3.99537 0.8754 4.05026 1.91792L4.85196 17.1429H1.80538C0.677018 17.2277 0.0752242 17.9063 0 19.1786C0.0752242 20.4509 0.677018 21.1295 1.80538 21.2143H5.19047L7.22153 41.5714V43.6071C7.29675 44.8795 7.89854 45.558 9.02691 45.6429C10.1553 45.558 10.7571 44.8795 10.8323 43.6071V41.5714H54.1614V43.6071C54.2367 44.8795 54.8385 45.558 55.9668 45.6429C57.0952 45.558 57.697 44.8795 57.7722 43.6071V41.5714L59.8033 21.2143H63.1884C64.3167 21.1295 64.9185 20.4509 64.9937 19.1786C64.9185 17.9063 64.3167 17.2277 63.1884 17.1429Z" fill="black"/>
</svg>
