<svg width="26" height="20" viewBox="0 0 26 20" fill="none" xmlns="http://www.w3.org/2000/svg">
<path d="M14.4062 11.4688C14.349 12.099 13.9909 12.4427 13.332 12.5C13.0456 12.5 12.8021 12.3997 12.6016 12.1992C12.401 11.9987 12.3008 11.7552 12.3008 11.4688V8.03125C12.3008 7.74479 12.401 7.5013 12.6016 7.30078C12.8021 7.10026 13.0456 7 13.332 7C13.9909 7.05729 14.349 7.40104 14.4062 8.03125V11.4688ZM17.7578 0.125C18.4167 0.125 19.0182 0.311198 19.5625 0.683594C20.0781 1.05599 20.4505 1.55729 20.6797 2.1875L25.3633 15.25C25.707 16.2812 25.5924 17.2122 25.0195 18.043C24.418 18.8737 23.5729 19.3177 22.4844 19.375H4.26562C3.17708 19.3177 2.33203 18.8737 1.73047 18.043C1.15755 17.2122 1.04297 16.2812 1.38672 15.25L6.02734 2.1875C6.28516 1.55729 6.67188 1.05599 7.1875 0.683594C7.73177 0.311198 8.33333 0.125 8.99219 0.125H17.7578ZM3.32031 15.9375C3.20573 16.2812 3.2487 16.5964 3.44922 16.8828C3.62109 17.1406 3.89323 17.2839 4.26562 17.3125H12.3008V16.2812C12.3008 15.9948 12.401 15.7513 12.6016 15.5508C12.8021 15.3503 13.0456 15.25 13.332 15.25C13.9909 15.3073 14.349 15.651 14.4062 16.2812V17.3125H22.4844C22.8568 17.2839 23.1289 17.1406 23.3008 16.8828C23.5013 16.5964 23.5443 16.2812 23.4297 15.9375L18.7461 2.875C18.5742 2.44531 18.2448 2.21615 17.7578 2.1875H14.4062V3.21875C14.349 3.84896 13.9909 4.19271 13.332 4.25C13.0456 4.25 12.8021 4.14974 12.6016 3.94922C12.401 3.7487 12.3008 3.50521 12.3008 3.21875V2.1875H8.99219C8.50521 2.21615 8.17578 2.44531 8.00391 2.875L3.32031 15.9375Z" fill="#00B712"/>
</svg>
