<svg width="18" height="19" viewBox="0 0 18 19" fill="none" xmlns="http://www.w3.org/2000/svg">
<path d="M17.4727 0.320312C17.3789 0.273438 17.2734 0.25 17.1562 0.25H12.1289C11.5898 0.296875 11.2969 0.578125 11.25 1.09375C11.2969 1.60938 11.5781 1.89063 12.0938 1.9375H15.1172L10.3711 6.68359C10.043 7.08203 10.043 7.48047 10.3711 7.87891C10.7695 8.20703 11.168 8.20703 11.5664 7.87891L16.3125 3.13281V6.15625C16.3594 6.67188 16.6406 6.95313 17.1562 7C17.6719 6.95313 17.9531 6.66016 18 6.12109V1.09375C18 0.976563 17.9766 0.871094 17.9297 0.777344C17.8359 0.566406 17.6836 0.414063 17.4727 0.320312ZM0.527344 18.1797C0.621094 18.2266 0.726562 18.25 0.84375 18.25H5.87109C6.41016 18.2031 6.70312 17.9219 6.75 17.4062C6.70312 16.8906 6.42188 16.6094 5.90625 16.5625H2.88281L7.62891 11.8164C7.95703 11.418 7.95703 11.0195 7.62891 10.6211C7.23047 10.293 6.83203 10.293 6.43359 10.6211L1.6875 15.3672V12.3438C1.64062 11.8281 1.35938 11.5469 0.84375 11.5C0.328125 11.5469 0.046875 11.8281 0 12.3438V17.4062C0 17.5234 0.0234375 17.6289 0.0703125 17.7227C0.164062 17.9336 0.316406 18.0859 0.527344 18.1797Z" fill="black"/>
</svg>
