<svg width="28" height="20" viewBox="0 0 28 20" fill="none" xmlns="http://www.w3.org/2000/svg">
<path d="M14.9102 0.125C15.4258 0.153646 15.8268 0.397135 16.1133 0.855469L20.3242 8.58984C20.8685 8.44661 21.4271 8.375 22 8.375C23.5469 8.40365 24.8503 8.93359 25.9102 9.96484C26.9414 11.0247 27.4714 12.3281 27.5 13.875C27.4714 15.4219 26.9414 16.7253 25.9102 17.7852C24.8503 18.8164 23.5469 19.3464 22 19.375C20.4531 19.3464 19.1497 18.8164 18.0898 17.7852C17.0586 16.7253 16.5286 15.4219 16.5 13.875C16.5573 12.0703 17.2305 10.6523 18.5195 9.62109L17.5742 7.90234L13.9648 14.0469C13.7357 14.3906 13.4349 14.5625 13.0625 14.5625H10.957C10.7565 15.9375 10.1549 17.0833 9.15234 18C8.14974 18.888 6.93229 19.3464 5.5 19.375C3.95312 19.3464 2.64974 18.8164 1.58984 17.7852C0.558594 16.7253 0.0286458 15.4219 0 13.875C0.0286458 12.3281 0.558594 11.0247 1.58984 9.96484C2.64974 8.93359 3.95312 8.40365 5.5 8.375C5.95833 8.375 6.40234 8.43229 6.83203 8.54688L7.99219 6.26953L7.04688 4.9375H5.15625C4.52604 4.88021 4.18229 4.53646 4.125 3.90625C4.18229 3.27604 4.52604 2.93229 5.15625 2.875H7.5625C7.8776 2.90365 8.16406 3.03255 8.42188 3.26172L9.58203 4.9375H15.9844L14.5234 2.1875H13.3633C13.0768 2.1875 12.8333 2.08724 12.6328 1.88672C12.4323 1.6862 12.332 1.44271 12.332 1.15625C12.332 0.869792 12.4323 0.626302 12.6328 0.425781C12.8333 0.22526 13.0768 0.125 13.3633 0.125H14.9102ZM18.5625 13.875C18.5911 14.849 18.9206 15.6654 19.5508 16.3242C20.2096 16.9544 21.026 17.2839 22 17.3125C22.974 17.2839 23.7904 16.9544 24.4492 16.3242C25.0794 15.6654 25.4089 14.849 25.4375 13.875C25.4089 12.901 25.0794 12.0846 24.4492 11.4258C23.7904 10.7956 22.974 10.4661 22 10.4375C21.7708 10.4375 21.556 10.4518 21.3555 10.4805L22.9023 13.4023C23.1602 13.9753 23.0169 14.4336 22.4727 14.7773C21.8997 15.0352 21.4414 14.8919 21.0977 14.3477L19.5508 11.4688C18.9206 12.1276 18.5911 12.9297 18.5625 13.875ZM5.88672 10.4805C5.85807 10.4518 5.84375 10.4375 5.84375 10.4375C5.72917 10.4375 5.60026 10.4375 5.45703 10.4375C4.51172 10.4661 3.70964 10.7956 3.05078 11.4258C2.39193 12.0846 2.04818 12.901 2.01953 13.875C2.04818 14.849 2.39193 15.6654 3.05078 16.3242C3.70964 16.9544 4.51172 17.2839 5.45703 17.3125C6.31641 17.2839 7.04688 17.026 7.64844 16.5391C8.27865 16.0234 8.67969 15.3646 8.85156 14.5625H5.71484C5.25651 14.5339 4.92708 14.3477 4.72656 14.0039C4.4974 13.6602 4.48307 13.2878 4.68359 12.8867L5.88672 10.4805ZM12.4609 12.5L9.36719 8.16016L7.17578 12.5H12.4609ZM11.043 7L13.6211 10.5664L15.7266 7H11.043Z" fill="#00B712"/>
</svg>
