<svg width="13" height="18" viewBox="0 0 13 18" fill="none" xmlns="http://www.w3.org/2000/svg">
<path d="M7.03125 13.1875C7.54688 13.2344 7.82812 13.5156 7.875 14.0312C7.82812 14.5469 7.54688 14.8281 7.03125 14.875C6 14.8516 5.13281 14.4883 4.42969 13.7852C3.75 13.1055 3.39844 12.2383 3.375 11.1836C3.375 10.9492 3.45703 10.75 3.62109 10.5859C3.78516 10.4219 3.98438 10.3398 4.21875 10.3398C4.45312 10.3398 4.65234 10.4219 4.81641 10.5859C4.98047 10.75 5.0625 10.9492 5.0625 11.1836C5.08594 11.7695 5.27344 12.2383 5.625 12.5898C6 12.9648 6.46875 13.1641 7.03125 13.1875ZM12.9375 11.4648C12.8906 13.2461 12.2812 14.7109 11.1094 15.8594C9.96094 17.0312 8.50781 17.6406 6.75 17.6875C4.99219 17.6406 3.53906 17.0312 2.39062 15.8594C1.21875 14.7109 0.609375 13.2461 0.5625 11.4648C0.585938 10.5742 0.914062 9.46094 1.54688 8.125C2.17969 6.8125 2.90625 5.5 3.72656 4.1875C4.54688 2.875 5.26172 1.78516 5.87109 0.917969C6.10547 0.613281 6.39844 0.460938 6.75 0.460938C7.10156 0.460938 7.39453 0.613281 7.62891 0.917969C8.23828 1.78516 8.95312 2.875 9.77344 4.1875C10.5938 5.5 11.3203 6.8125 11.9531 8.125C12.5859 9.46094 12.9141 10.5742 12.9375 11.4648ZM10.793 9.70703C10.4414 8.86328 9.99609 7.94922 9.45703 6.96484C9.01172 6.16797 8.55469 5.39453 8.08594 4.64453C7.59375 3.89453 7.14844 3.22656 6.75 2.64062C6.35156 3.22656 5.90625 3.89453 5.41406 4.64453C4.94531 5.39453 4.48828 6.16797 4.04297 6.96484C3.50391 7.94922 3.05859 8.86328 2.70703 9.70703C2.37891 10.5742 2.22656 11.1602 2.25 11.4648C2.27344 12.7539 2.70703 13.8203 3.55078 14.6641C4.41797 15.5312 5.48438 15.9766 6.75 16C8.01562 15.9766 9.08203 15.5312 9.94922 14.6641C10.793 13.8203 11.2266 12.7539 11.25 11.4648C11.2734 11.1602 11.1211 10.5742 10.793 9.70703Z" fill="black"/>
</svg>
