<svg width="72" height="72" viewBox="0 0 72 72" fill="none" xmlns="http://www.w3.org/2000/svg">
<circle cx="36" cy="36" r="35.5" fill="white" stroke="#D1D5DB"/>
<path d="M42.125 36.6914C42.0859 38.4883 41.5586 40.0312 40.543 41.3203C39.4883 42.6094 38.1406 43.2734 36.5 43.3125C34.8594 43.2734 33.5117 42.6094 32.457 41.3203C31.4414 40.0312 30.9141 38.4883 30.875 36.6914C30.9141 34.8945 31.4414 33.3711 32.457 32.1211C33.5117 30.8711 34.8594 30.207 36.5 30.1289C38.1406 30.207 39.4883 30.8711 40.543 32.1211C41.5586 33.3711 42.0859 34.8945 42.125 36.6914ZM36.5 41.4375C37.4766 41.3984 38.3359 40.9688 39.0781 40.1484C39.8203 39.2891 40.2109 38.1367 40.25 36.6914C40.2109 35.2852 39.8203 34.1523 39.0781 33.293C38.3359 32.4727 37.4766 32.043 36.5 32.0039C35.5234 32.043 34.6641 32.4727 33.9219 33.293C33.1797 34.1523 32.7891 35.2852 32.75 36.6914C32.7891 38.1367 33.1797 39.2891 33.9219 40.1484C34.6641 40.9688 35.5234 41.3984 36.5 41.4375ZM19.625 46.4766V28.3711C19.6641 27.6289 19.9766 27.0625 20.5625 26.6719C21.1094 26.3203 21.7539 26.2227 22.4961 26.3789C24.8008 26.9648 27.125 27.082 29.4688 26.7305C31.8125 26.418 34.1562 25.9297 36.5 25.2656C39.0391 24.5625 41.5977 24.0547 44.1758 23.7422C46.7148 23.4297 49.2539 23.7031 51.793 24.5625C52.8086 25.0312 53.3359 25.8516 53.375 27.0234V45.1875C53.3359 45.8906 53.0234 46.4375 52.4375 46.8281C51.8906 47.1797 51.2461 47.2773 50.5039 47.1211C48.1992 46.5352 45.875 46.418 43.5312 46.7695C41.1875 47.082 38.8438 47.5703 36.5 48.2344C36.4609 48.2344 36.4414 48.2344 36.4414 48.2344C33.8633 48.9375 31.3047 49.4453 28.7656 49.7578C26.2266 50.0703 23.707 49.7969 21.207 48.9375C20.1914 48.4688 19.6641 47.6484 19.625 46.4766ZM25.25 28.7227V28.7812C24.1562 28.7031 23.0625 28.4883 21.9688 28.1367C21.8516 28.1367 21.7148 28.1758 21.5586 28.2539C21.5586 28.2539 21.5586 28.2734 21.5586 28.3125C21.5195 28.3125 21.4805 28.3125 21.4414 28.3125L21.5 28.3711V32.5312C22.5547 32.4922 23.4336 32.1211 24.1367 31.418C24.8398 30.7148 25.2109 29.8359 25.25 28.7812V28.7227ZM21.5 43.7812V46.4766C21.5391 46.8672 21.6562 47.1016 21.8516 47.1797C22.9844 47.5703 24.1172 47.8242 25.25 47.9414V47.5312C25.2109 46.4766 24.8398 45.5977 24.1367 44.8945C23.4336 44.1914 22.5547 43.8203 21.5 43.7812ZM21.5 41.9062C23.1016 41.9453 24.4297 42.4922 25.4844 43.5469C26.5391 44.6016 27.0859 45.9297 27.125 47.5312V48C29.7422 47.8438 32.4961 47.375 35.3867 46.5938C35.6602 46.5156 35.9141 46.4375 36.1484 46.3594C37.6719 45.9688 39.2539 45.5977 40.8945 45.2461C42.5352 44.9336 44.1953 44.7578 45.875 44.7188C45.9141 43.1172 46.4609 41.7891 47.5156 40.7344C48.5703 39.6406 49.8984 39.0742 51.5 39.0352V31.5352C49.8984 31.4961 48.5703 30.9492 47.5156 29.8945C46.4609 28.8398 45.9141 27.5117 45.875 25.9102V25.5C43.2578 25.6172 40.5039 26.1055 37.6133 26.9648C37.4961 26.9648 37.3789 26.9844 37.2617 27.0234C37.1055 27.0625 36.9688 27.1016 36.8516 27.1406C35.3281 27.5312 33.7461 27.9023 32.1055 28.2539C30.4648 28.5664 28.7852 28.7422 27.0664 28.7812C27.0664 30.3828 26.5391 31.7109 25.4844 32.7656C24.4297 33.7812 23.1016 34.3086 21.5 34.3477V41.9062ZM51.4414 45.2461C51.4805 45.207 51.5 45.1875 51.5 45.1875V40.9688C50.4453 41.0078 49.5664 41.3789 48.8633 42.082C48.1602 42.7852 47.7891 43.6641 47.75 44.7188V44.7773C48.8438 44.8164 49.9375 44.9922 51.0312 45.3047C51.1484 45.3438 51.2852 45.3242 51.4414 45.2461ZM51.5 29.6602V27.0234C51.4609 26.6328 51.3438 26.3984 51.1484 26.3203C50.0156 25.9297 48.8828 25.6758 47.75 25.5586V25.9102C47.7891 27.0039 48.1602 27.9023 48.8633 28.6055C49.5664 29.2695 50.4453 29.6211 51.5 29.6602Z" fill="#9FA6B2"/>
</svg>
