<svg width="36" height="35" viewBox="0 0 36 35" fill="none" xmlns="http://www.w3.org/2000/svg">
<path d="M11.8125 10.3281C11.7188 9.85937 11.4375 9.50781 10.9688 9.27344C10.5469 9.03906 10.1016 9.01562 9.63281 9.20312L3.23438 11.5234C2.34375 11.9922 2.01562 12.7188 2.25 13.7031C2.71875 14.6406 3.44531 14.9688 4.42969 14.6875L6.46875 13.9844L1.89844 21.5078C0.914062 23.2891 0.84375 25.1172 1.6875 26.9922L1.89844 27.3438C2.97656 29.3125 4.66406 30.3438 6.96094 30.4375H9.5625C10.5938 30.3438 11.1562 29.7812 11.25 28.75C11.1562 27.7188 10.5938 27.1562 9.5625 27.0625H6.96094C6.02344 27.0156 5.34375 26.5938 4.92188 25.7969L4.71094 25.4453C4.38281 24.6953 4.42969 23.9688 4.85156 23.2656L9.5625 15.3203L10.1953 17.7109C10.4297 18.5547 10.9688 19 11.8125 19.0469C11.9531 19.0469 12.0938 19.0234 12.2344 18.9766C13.2188 18.6484 13.6172 17.9688 13.4297 16.9375L11.8125 10.3281ZM12.5156 7.16406C13.4531 7.58594 14.2266 7.375 14.8359 6.53125L16.0312 4.5625C16.5 3.85938 17.1562 3.50781 18 3.50781C18.8438 3.50781 19.5 3.85938 19.9688 4.5625L24.0469 11.3125L21.5156 10.6094C20.5312 10.4219 19.8516 10.7969 19.4766 11.7344C19.3359 12.2031 19.3828 12.625 19.6172 13C19.8047 13.4219 20.1328 13.7031 20.6016 13.8438L27.0703 15.7422C27.2578 15.7891 27.4219 15.8125 27.5625 15.8125C27.8906 15.8125 28.1953 15.7188 28.4766 15.5312C28.8984 15.2969 29.1562 14.9219 29.25 14.4062L30.375 7.72656C30.4219 6.69531 29.9531 6.03906 28.9688 5.75781C27.9375 5.71094 27.2812 6.17969 27 7.16406L26.6484 9.20312L22.8516 2.80469C21.7266 1.02344 20.1094 0.109375 18 0.0625C15.8906 0.109375 14.2734 1.02344 13.1484 2.80469L11.9531 4.84375C11.4844 5.78125 11.6719 6.55469 12.5156 7.16406ZM34.1016 21.5078L32.4844 18.9062C31.875 18.0625 31.1016 17.8516 30.1641 18.2734C29.3203 18.9297 29.1328 19.7031 29.6016 20.5938L31.1484 23.2656C31.5703 23.9688 31.6172 24.6953 31.2891 25.4453L31.0781 25.7969C30.6562 26.5938 29.9766 27.0156 29.0391 27.0625H20.1797L21.9375 25.5156C22.6406 24.7656 22.6875 23.9688 22.0781 23.125C21.3281 22.4219 20.5312 22.375 19.6875 22.9844L14.625 27.4844C14.25 27.8125 14.0625 28.2344 14.0625 28.75C14.0625 29.2656 14.25 29.6875 14.625 30.0156L19.6875 34.5156C20.0156 34.7969 20.3906 34.9375 20.8125 34.9375C21.2812 34.9375 21.7031 34.75 22.0781 34.375C22.6875 33.5312 22.6406 32.7344 21.9375 31.9844L20.1797 30.4375H29.0391C31.3359 30.3438 33.0234 29.2891 34.1016 27.2734L34.3125 26.9922C35.1094 25.1172 35.0391 23.2891 34.1016 21.5078Z" fill="#00B712"/>
</svg>
