<svg width="32" height="31" viewBox="0 0 32 31" fill="none" xmlns="http://www.w3.org/2000/svg">
<path d="M9.88116 12.5273C9.49054 12.1758 9.04132 12 8.53351 12C8.41632 12 8.2796 12.0195 8.12335 12.0586C7.45929 12.2148 7.01007 12.6055 6.7757 13.2305L1.20929 28.2305C0.974915 28.9727 1.11163 29.6367 1.61945 30.2227C1.97101 30.5742 2.4007 30.75 2.90851 30.75C3.14288 30.75 3.35773 30.7109 3.55304 30.6328L18.4944 25.0078C19.1194 24.7344 19.5101 24.2852 19.6663 23.6602C19.8226 22.9961 19.6663 22.4102 19.1976 21.9023L9.88116 12.5273ZM2.90851 28.8164L4.60773 24.3047L7.42023 27.1172L2.90851 28.8164ZM9.35382 26.4727L5.31085 22.4297L6.65851 18.9141L12.8694 25.125L9.35382 26.4727ZM14.803 24.4219L7.36163 16.9805L8.53351 13.875L17.9085 23.1914L14.803 24.4219ZM30.096 15.75H29.4515C27.9671 15.75 26.5609 16.1211 25.2327 16.8633C23.9046 17.5664 22.7718 18.582 21.8343 19.9102C21.5609 20.3789 21.639 20.8086 22.0687 21.1992C22.2249 21.3164 22.4007 21.375 22.596 21.375C22.9085 21.375 23.1624 21.2383 23.3577 20.9648C24.9593 18.7773 26.9905 17.6641 29.4515 17.625H30.096C30.6819 17.5859 30.9944 17.2734 31.0335 16.6875C30.9944 16.1016 30.6819 15.7891 30.096 15.75ZM11.346 10.125C11.5413 10.125 11.7171 10.0664 11.8734 9.94922C13.2015 9.01172 14.2171 7.87891 14.9202 6.55078C15.6624 5.22266 16.0335 3.81641 16.0335 2.33203V1.6875C15.9554 1.10156 15.6624 0.789063 15.1546 0.75C14.5687 0.789063 14.2562 1.10156 14.2171 1.6875V2.33203C14.178 4.79297 13.0648 6.82422 10.8773 8.42578C10.4085 8.81641 10.2913 9.24609 10.5257 9.71484C10.7601 9.98828 11.0335 10.125 11.346 10.125ZM4.78351 4.03125C5.64288 3.95313 6.11163 3.48438 6.18976 2.625C6.11163 1.76562 5.64288 1.29687 4.78351 1.21875C3.9632 1.29687 3.51398 1.76562 3.43585 2.625C3.47491 3.48438 3.92413 3.95313 4.78351 4.03125ZM29.1585 25.5938C28.2991 25.6719 27.8304 26.1406 27.7523 27C27.8304 27.8594 28.2991 28.3281 29.1585 28.4062C30.0179 28.3281 30.4866 27.8594 30.5648 27C30.4866 26.1406 30.0179 25.6719 29.1585 25.5938ZM29.1585 8.71875C28.2991 8.79688 27.8304 9.26562 27.7523 10.125C27.8304 10.9844 28.2991 11.4531 29.1585 11.5312C30.0179 11.4531 30.4866 10.9844 30.5648 10.125C30.4866 9.26562 30.0179 8.79688 29.1585 8.71875ZM23.4749 11.0039C24.0218 10.3008 24.3343 9.63672 24.4124 9.01172C24.4905 8.38672 24.5101 7.80078 24.471 7.25391C24.4319 6.78516 24.4319 6.35547 24.471 5.96484C24.5101 5.61328 24.7054 5.24219 25.0569 4.85156C25.3694 4.46094 25.7015 4.20703 26.053 4.08984C26.4437 3.97266 26.8538 3.91406 27.2835 3.91406C27.8304 3.875 28.3968 3.75781 28.9827 3.5625C29.6077 3.36719 30.2132 2.9375 30.7991 2.27344C31.1507 1.80469 31.1116 1.375 30.6819 0.984375C30.2132 0.632812 29.7835 0.671875 29.3929 1.10156C29.0413 1.45312 28.6898 1.6875 28.3382 1.80469C27.9866 1.92188 27.5765 2 27.1077 2.03906C26.5999 2.03906 26.0335 2.13672 25.4085 2.33203C24.7835 2.52734 24.178 2.95703 23.5921 3.62109C23.0452 4.32422 22.7327 4.98828 22.6546 5.61328C22.5765 6.23828 22.5569 6.82422 22.596 7.37109C22.6351 7.83984 22.6351 8.26953 22.596 8.66016C22.5569 9.01172 22.3616 9.38281 22.0101 9.77344C21.6976 10.1641 21.3655 10.418 21.014 10.5352C20.6234 10.6523 20.2132 10.7109 19.7835 10.7109C19.2366 10.75 18.6702 10.8672 18.0843 11.0625C17.4593 11.2578 16.8538 11.6875 16.2679 12.3516C15.9163 12.8203 15.9554 13.25 16.3851 13.6406C16.5413 13.7969 16.7366 13.875 16.971 13.875C17.2444 13.875 17.4788 13.7578 17.6741 13.5234C18.0257 13.1719 18.3773 12.9375 18.7288 12.8203C19.0804 12.7031 19.4905 12.625 19.9593 12.5859C20.4671 12.5859 21.0335 12.4883 21.6585 12.293C22.2835 12.0977 22.889 11.668 23.4749 11.0039Z" fill="#1F2937"/>
</svg>
