<svg width="16" height="19" viewBox="0 0 16 19" fill="none" xmlns="http://www.w3.org/2000/svg">
<path d="M14.9062 3.0625C15.4219 3.10937 15.7031 3.39062 15.75 3.90625C15.7031 4.42188 15.4219 4.70313 14.9062 4.75H14.4844L13.6406 16.1758C13.5938 16.7617 13.3594 17.2539 12.9375 17.6523C12.5156 18.0273 12.0117 18.2266 11.4258 18.25H4.32422C3.73828 18.2266 3.23438 18.0273 2.8125 17.6523C2.39062 17.2539 2.15625 16.7617 2.10938 16.1758L1.26562 4.75H0.84375C0.328125 4.70313 0.046875 4.42188 0 3.90625C0.046875 3.39062 0.328125 3.10937 0.84375 3.0625H3.30469L4.60547 1.12891C5.00391 0.566406 5.54297 0.273438 6.22266 0.25H9.52734C10.207 0.273438 10.7578 0.566406 11.1797 1.12891L12.4453 3.0625H14.9062ZM6.22266 1.9375C6.10547 1.9375 6.03516 1.98437 6.01172 2.07812L5.34375 3.0625H10.4414L9.77344 2.07812C9.70312 1.98437 9.62109 1.9375 9.52734 1.9375H6.22266ZM12.7969 4.75H2.95312L3.79688 16.0352C3.84375 16.3633 4.01953 16.5391 4.32422 16.5625H11.4258C11.7305 16.5391 11.918 16.3633 11.9883 16.0352L12.7969 4.75Z" fill="black"/>
</svg>
